<svg xmlns="http://www.w3.org/2000/svg" viewBox="0 0 600 500" fill="none">
  <defs>
    <linearGradient id="bgGrad" x1="0%" y1="0%" x2="100%" y2="100%">
      <stop offset="0%" style="stop-color:#1e293b"/>
      <stop offset="100%" style="stop-color:#312e81"/>
    </linearGradient>
    <linearGradient id="accentGrad" x1="0%" y1="0%" x2="100%" y2="0%">
      <stop offset="0%" style="stop-color:#6366f1"/>
      <stop offset="100%" style="stop-color:#8b5cf6"/>
    </linearGradient>
  </defs>
  <rect width="600" height="500" rx="16" fill="url(#bgGrad)"/>
  <!-- Server rack -->
  <rect x="120" y="80" width="360" height="340" rx="8" fill="#0f172a" stroke="url(#accentGrad)" stroke-width="2"/>
  <rect x="140" y="100" width="80" height="60" rx="4" fill="#334155"/>
  <rect x="240" y="100" width="80" height="60" rx="4" fill="#334155"/>
  <rect x="340" y="100" width="80" height="60" rx="4" fill="#334155"/>
  <circle cx="165" cy="130" r="4" fill="#6366f1"/>
  <circle cx="265" cy="130" r="4" fill="#6366f1"/>
  <circle cx="365" cy="130" r="4" fill="#22c55e"/>
  <rect x="140" y="180" width="280" height="8" rx="4" fill="#475569"/>
  <rect x="140" y="200" width="200" height="8" rx="4" fill="#475569"/>
  <rect x="140" y="220" width="240" height="8" rx="4" fill="#475569"/>
  <!-- Cloud -->
  <ellipse cx="450" cy="180" rx="60" ry="35" fill="url(#accentGrad)" opacity="0.6"/>
  <ellipse cx="420" cy="200" rx="50" ry="30" fill="url(#accentGrad)" opacity="0.5"/>
  <ellipse cx="480" cy="195" rx="45" ry="28" fill="url(#accentGrad)" opacity="0.5"/>
  <!-- Network nodes -->
  <circle cx="100" cy="250" r="20" fill="#1e293b" stroke="#6366f1" stroke-width="2"/>
  <circle cx="100" cy="250" r="8" fill="#6366f1"/>
  <circle cx="500" cy="250" r="20" fill="#1e293b" stroke="#8b5cf6" stroke-width="2"/>
  <circle cx="500" cy="250" r="8" fill="#8b5cf6"/>
  <path d="M120 250 L480 250" stroke="#475569" stroke-width="1" stroke-dasharray="8 4" opacity="0.6"/>
  <!-- Shield -->
  <path d="M300 350 L260 380 L260 420 L340 420 L340 380 Z" fill="#1e293b" stroke="url(#accentGrad)" stroke-width="2"/>
  <path d="M300 365 L275 385 L275 405 L325 405 L325 385 Z" fill="#6366f1" opacity="0.3"/>
</svg>
