<svg xmlns="http://www.w3.org/2000/svg" viewBox="0 0 480 400" fill="none">
  <defs>
    <linearGradient id="whyGrad1" x1="0%" y1="0%" x2="100%" y2="100%">
      <stop offset="0%" style="stop-color:#6366f1"/>
      <stop offset="100%" style="stop-color:#8b5cf6"/>
    </linearGradient>
    <linearGradient id="whyGrad2" x1="0%" y1="0%" x2="0%" y2="100%">
      <stop offset="0%" style="stop-color:#e0e7ff"/>
      <stop offset="100%" style="stop-color:#c7d2fe"/>
    </linearGradient>
  </defs>
  <!-- Laptop -->
  <rect x="80" y="180" width="320" height="200" rx="12" fill="#f1f5f9" stroke="#cbd5e1" stroke-width="2"/>
  <rect x="100" y="200" width="280" height="140" rx="6" fill="#1e293b"/>
  <rect x="100" y="200" width="280" height="28" rx="6" fill="#334155"/>
  <circle cx="120" cy="214" r="4" fill="#ef4444"/>
  <circle cx="135" cy="214" r="4" fill="#eab308"/>
  <circle cx="150" cy="214" r="4" fill="#22c55e"/>
  <rect x="180" y="250" width="120" height="8" rx="4" fill="#475569"/>
  <rect x="180" y="270" width="80" height="8" rx="4" fill="#475569"/>
  <rect x="180" y="290" width="100" height="8" rx="4" fill="#475569"/>
  <rect x="200" y="340" width="160" height="12" rx="4" fill="#cbd5e1"/>
  <!-- People/Team icons -->
  <circle cx="380" cy="120" r="35" fill="url(#whyGrad2)" stroke="url(#whyGrad1)" stroke-width="2"/>
  <circle cx="380" cy="115" r="10" fill="url(#whyGrad1)"/>
  <path d="M365 145 Q380 155 395 145" stroke="url(#whyGrad1)" stroke-width="4" fill="none"/>
  <circle cx="100" cy="100" r="30" fill="url(#whyGrad2)" stroke="url(#whyGrad1)" stroke-width="2"/>
  <circle cx="100" cy="96" r="8" fill="url(#whyGrad1)"/>
  <path d="M88 118 Q100 125 112 118" stroke="url(#whyGrad1)" stroke-width="3" fill="none"/>
  <!-- Shield -->
  <path d="M240 60 L200 85 L200 140 L280 140 L280 85 Z" fill="url(#whyGrad2)" stroke="url(#whyGrad1)" stroke-width="2"/>
  <path d="M240 80 L215 95 L215 125 L265 125 L265 95 Z" fill="url(#whyGrad1)" opacity="0.4"/>
  <!-- Connection lines -->
  <path d="M130 100 L180 160" stroke="#cbd5e1" stroke-width="1" stroke-dasharray="4 4"/>
  <path d="M350 120 L280 160" stroke="#cbd5e1" stroke-width="1" stroke-dasharray="4 4"/>
</svg>
